<?xml version="1.0" encoding="utf-8"?>
<!-- Generator: Adobe Illustrator 18.0.0, SVG Export Plug-In . SVG Version: 6.00 Build 0)  -->
<!DOCTYPE svg PUBLIC "-//W3C//DTD SVG 1.1//EN" "http://www.w3.org/Graphics/SVG/1.1/DTD/svg11.dtd">
<svg version="1.1" id="Layer_1" xmlns="http://www.w3.org/2000/svg" xmlns:xlink="http://www.w3.org/1999/xlink" x="0px" y="0px"
	 viewBox="291.5 -72.8 1336.9 1081.7" enable-background="new 291.5 -72.8 1336.9 1081.7" xml:space="preserve">
<path fill="#77B9C8" d="M1478.7,384.9c-3.1,0-118.9,0-118.9,0c2.1-22.3,3.4-38,3.4-51.3c0.4-118.9-79-229.6-195.1-255.1
	c-66.1-14.6-129.3-7.3-181.6,20.9C923,4.6,817.4-61.1,696.3-68.6c-15.6-2.1-31.4-4.2-47.5-4.2c-197.3,0-357.3,164.7-357.3,368.2
	c0,106.1,43.7,201.2,113.2,268.4c61.6,68.3,146.9,112.2,247.9,119.4c0,0,822.9,4,826,4c82.8,0,149.8-62,149.8-151.2
	S1561.5,384.9,1478.7,384.9z"/>
<path fill="#92C7D3" d="M1384.7,719.2c-2.7,0-105,0-105,0c1.8-22.3,3.1-22.2,3.1-34.1c0.4-105-69.9-197-172.3-219.7
	c-58.5-12.8-114.3-3.6-160.4,21.3c-56.2-84-149.5-140.6-256.4-147c-13.8-1.8-27.7-3.1-42-3.1C477.2,336.6,336,482.5,336,662.2
	c0,93.7,38.6,177.8,99.9,237.3c54.3,60.3,129.8,99.2,219,105.8c0,0,726.9,3.6,729.6,3.6c73,0,132.4-66.1,132.4-144.8
	S1457.8,719.2,1384.7,719.2z"/>
</svg>
