<?xml version="1.0" encoding="utf-8"?>
<!-- Generator: Adobe Illustrator 18.0.0, SVG Export Plug-In . SVG Version: 6.00 Build 0)  -->
<!DOCTYPE svg PUBLIC "-//W3C//DTD SVG 1.1//EN" "http://www.w3.org/Graphics/SVG/1.1/DTD/svg11.dtd">
<svg version="1.1" id="Layer_1" xmlns="http://www.w3.org/2000/svg" xmlns:xlink="http://www.w3.org/1999/xlink" x="0px" y="0px"
	 viewBox="420 0 1080 1080" enable-background="new 420 0 1080 1080" xml:space="preserve">
<g>
	<ellipse fill="#FCB641" cx="1186.6" cy="523.3" rx="305.2" ry="299.5"/>
	<path fill="#FCB641" d="M1173.9,146.9c-9.9,0-18-8-18-18V21.2c0-9.9,8-18,18-18c9.9,0,18,8,18,18v107.7
		C1191.9,138.8,1183.9,146.9,1173.9,146.9z"/>
	<path fill="#FCB641" d="M1405.9,221.6c-4.6,0-9.2-1.8-12.7-5.3c-7-7-7-18.4,0-25.4l76.2-76.2c7-7,18.4-7,25.4,0s7,18.4,0,25.4
		l-76.2,76.2C1415.1,219.8,1410.5,221.6,1405.9,221.6z"/>
	<path fill="#FCB641" d="M888.9,274.7c-4.6,0-9.2-1.8-12.7-5.3l-76.1-76.1c-7-7-7-18.4,0-25.4c7-7,18.4-7,25.4,0l76.1,76.1
		c7,7,7,18.4,0,25.4C898.1,272.9,893.5,274.7,888.9,274.7z"/>
</g>
<path fill="#92C7D3" d="M1376.4,811.1c-2.5,0-95.7,0-95.7,0c1.7-18,2.8-19.5,2.8-30.2c0.3-95.8-63.6-179.4-157.1-200
	c-53.3-11.7-104.2-3.1-146.3,19.7c-51.4-76.4-136.4-128-234-134c-12.5-1.7-25.3-2.7-38.3-2.7c-159,0-287.8,133-287.8,296.9
	c0,85.4,35.2,162.2,91.2,216.4c49.5,54.9,118.3,90.5,199.7,96.4c0,0,662.9,3.3,665.4,3.3c66.7,0,120.7-61.1,120.7-132.9
	C1497.1,872.1,1443,811.1,1376.4,811.1z"/>
</svg>
