<?xml version="1.0" encoding="utf-8"?>
<!-- Generator: Adobe Illustrator 18.0.0, SVG Export Plug-In . SVG Version: 6.00 Build 0)  -->
<!DOCTYPE svg PUBLIC "-//W3C//DTD SVG 1.1//EN" "http://www.w3.org/Graphics/SVG/1.1/DTD/svg11.dtd">
<svg version="1.1" id="Layer_1" xmlns="http://www.w3.org/2000/svg" xmlns:xlink="http://www.w3.org/1999/xlink" x="0px" y="0px"
	 viewBox="468.9 97.7 1823.6 1079.8" enable-background="new 468.9 97.7 1823.6 1079.8" xml:space="preserve">
<g id="Calque_2">
	<path fill="#92C7D3" d="M2192,990.9H567.1c-18.7,0-33.8-13.3-33.8-30c0-16.7,15.2-30,33.8-30H2192c18.7,0,33.8,13.3,33.8,30
		C2225.8,977.5,2210.8,990.9,2192,990.9z"/>
	<path fill="#92C7D3" d="M2258.6,1084.2H633.7c-18.7,0-33.8-13.3-33.8-30c0-16.7,15.2-30,33.8-30h1624.9c18.7,0,33.8,13.3,33.8,30
		C2292.5,1070.8,2277.5,1084.2,2258.6,1084.2z"/>
	<path fill="#92C7D3" d="M2192,1177.5H567.1c-18.7,0-33.8-13.3-33.8-30s15.2-30,33.8-30H2192c18.7,0,33.8,13.3,33.8,30
		S2210.8,1177.5,2192,1177.5z"/>
</g>
<path fill="#92C7D3" d="M2062.7,676.2c-4.2,0-159.5,0-159.5,0c2.8-30,4.7-32.5,4.7-50.3c0.5-159.6-106-299-261.8-333.3
	c-88.8-19.5-173.6-5.2-243.8,32.8c-85.7-127.3-227.3-213.3-389.9-223.3c-20.8-2.8-42.2-4.5-63.8-4.5c-265,0-479.6,221.6-479.6,494.8
	c0,113.6,37.5,218.3,100.2,301.8l1694.7,3.5C2263.8,777.9,2173.8,676.2,2062.7,676.2z"/>
</svg>
