<?xml version="1.0" encoding="utf-8"?>
<!-- Generator: Adobe Illustrator 18.0.0, SVG Export Plug-In . SVG Version: 6.00 Build 0)  -->
<!DOCTYPE svg PUBLIC "-//W3C//DTD SVG 1.1//EN" "http://www.w3.org/Graphics/SVG/1.1/DTD/svg11.dtd">
<svg version="1.1" id="Layer_1" xmlns="http://www.w3.org/2000/svg" xmlns:xlink="http://www.w3.org/1999/xlink" x="0px" y="0px"
	 viewBox="960 97.8 912.1 887.5" enable-background="new 960 97.8 912.1 887.5" xml:space="preserve">
<path id="SVGCleanerId_0" fill="#92C7D3" d="M1197.3,985.3c-2.9,0-5.7-0.7-8.3-2.2c-8-4.6-10.7-14.8-6.1-22.8l58.3-101
	c4.6-8,14.8-10.7,22.8-6.1c8,4.6,10.7,14.8,6.1,22.8l-58.3,101C1208.7,982.4,1203.1,985.3,1197.3,985.3z"/>
<path id="SVGCleanerId_1" fill="#92C7D3" d="M1297.3,985.3c-2.9,0-5.7-0.7-8.3-2.2c-8-4.6-10.7-14.8-6.1-22.8l58.3-101
	c4.6-8,14.8-10.7,22.8-6.1c8,4.6,10.7,14.8,6.1,22.8l-58.3,101C1308.7,982.4,1303,985.3,1297.3,985.3z"/>
<path id="SVGCleanerId_2" fill="#92C7D3" d="M997.4,985.3c-2.9,0-5.7-0.7-8.3-2.2c-8-4.6-10.7-14.8-6.1-22.8l58.3-101
	c4.6-8,14.8-10.7,22.8-6.1c8,4.6,10.7,14.8,6.1,22.8l-58.3,101C1008.8,982.4,1003.2,985.3,997.4,985.3z"/>
<path id="SVGCleanerId_3" fill="#92C7D3" d="M1097.4,985.3c-2.9,0-5.7-0.7-8.3-2.2c-8-4.6-10.7-14.8-6.1-22.8l58.3-101
	c4.6-8,14.8-10.7,22.8-6.1c8,4.6,10.7,14.8,6.1,22.8l-58.3,101C1108.8,982.4,1103.1,985.3,1097.4,985.3z"/>
<path id="SVGCleanerId_4" fill="#92C7D3" d="M1397.3,985.3c-2.9,0-5.7-0.7-8.3-2.2c-8-4.6-10.7-14.8-6.1-22.8l58.3-101
	c4.6-8,14.8-10.7,22.8-6.1c8,4.6,10.7,14.8,6.1,22.8l-58.3,101C1408.6,982.4,1403,985.3,1397.3,985.3z"/>
<path id="SVGCleanerId_5" fill="#92C7D3" d="M1497.2,985.3c-2.9,0-5.7-0.7-8.3-2.2c-8-4.6-10.7-14.8-6.1-22.8l58.3-101
	c4.6-8,14.8-10.7,22.8-6.1c8,4.6,10.7,14.8,6.1,22.8l-58.3,101C1508.6,982.4,1503,985.3,1497.2,985.3z"/>
<path id="SVGCleanerId_6" fill="#92C7D3" d="M1597.2,985.3c-2.9,0-5.7-0.7-8.3-2.2c-8-4.6-10.7-14.8-6.1-22.8l58.3-101
	c4.6-8,14.8-10.7,22.8-6.1c8,4.6,10.7,14.8,6.1,22.8l-58.3,101C1608.6,982.4,1602.9,985.3,1597.2,985.3z"/>
<path id="SVGCleanerId_7" fill="#92C7D3" d="M1697.1,985.3c-2.9,0-5.7-0.7-8.3-2.2c-8-4.6-10.7-14.8-6.1-22.8l58.3-101
	c4.6-8,14.8-10.7,22.8-6.1c8,4.6,10.7,14.8,6.1,22.8l-58.3,101C1708.5,982.4,1702.9,985.3,1697.1,985.3z"/>
<path id="SVGCleanerId_8" fill="#92C7D3" d="M1797.1,985.3c-2.9,0-5.7-0.7-8.3-2.2c-8-4.6-10.7-14.8-6.1-22.8l58.3-101
	c4.6-8,14.8-10.7,22.8-6.1c8,4.6,10.7,14.8,6.1,22.8l-58.3,101C1808.5,982.4,1802.8,985.3,1797.1,985.3z"/>
<g>
	<path id="SVGCleanerId_0_1_" fill="#92C7D3" d="M1197.3,985.3c-2.9,0-5.7-0.7-8.3-2.2c-8-4.6-10.7-14.8-6.1-22.8l58.3-101
		c4.6-8,14.8-10.7,22.8-6.1c8,4.6,10.7,14.8,6.1,22.8l-58.3,101C1208.7,982.4,1203.1,985.3,1197.3,985.3z"/>
</g>
<g>
	<path id="SVGCleanerId_1_1_" fill="#92C7D3" d="M1297.3,985.3c-2.9,0-5.7-0.7-8.3-2.2c-8-4.6-10.7-14.8-6.1-22.8l58.3-101
		c4.6-8,14.8-10.7,22.8-6.1c8,4.6,10.7,14.8,6.1,22.8l-58.3,101C1308.7,982.4,1303,985.3,1297.3,985.3z"/>
</g>
<g>
	<path id="SVGCleanerId_2_1_" fill="#92C7D3" d="M997.4,985.3c-2.9,0-5.7-0.7-8.3-2.2c-8-4.6-10.7-14.8-6.1-22.8l58.3-101
		c4.6-8,14.8-10.7,22.8-6.1c8,4.6,10.7,14.8,6.1,22.8l-58.3,101C1008.8,982.4,1003.2,985.3,997.4,985.3z"/>
</g>
<g>
	<path id="SVGCleanerId_3_1_" fill="#92C7D3" d="M1097.4,985.3c-2.9,0-5.7-0.7-8.3-2.2c-8-4.6-10.7-14.8-6.1-22.8l58.3-101
		c4.6-8,14.8-10.7,22.8-6.1c8,4.6,10.7,14.8,6.1,22.8l-58.3,101C1108.8,982.4,1103.1,985.3,1097.4,985.3z"/>
</g>
<g>
	<path id="SVGCleanerId_4_1_" fill="#92C7D3" d="M1397.3,985.3c-2.9,0-5.7-0.7-8.3-2.2c-8-4.6-10.7-14.8-6.1-22.8l58.3-101
		c4.6-8,14.8-10.7,22.8-6.1c8,4.6,10.7,14.8,6.1,22.8l-58.3,101C1408.6,982.4,1403,985.3,1397.3,985.3z"/>
</g>
<g>
	<path id="SVGCleanerId_5_1_" fill="#92C7D3" d="M1497.2,985.3c-2.9,0-5.7-0.7-8.3-2.2c-8-4.6-10.7-14.8-6.1-22.8l58.3-101
		c4.6-8,14.8-10.7,22.8-6.1c8,4.6,10.7,14.8,6.1,22.8l-58.3,101C1508.6,982.4,1503,985.3,1497.2,985.3z"/>
</g>
<g>
	<path id="SVGCleanerId_6_1_" fill="#92C7D3" d="M1597.2,985.3c-2.9,0-5.7-0.7-8.3-2.2c-8-4.6-10.7-14.8-6.1-22.8l58.3-101
		c4.6-8,14.8-10.7,22.8-6.1c8,4.6,10.7,14.8,6.1,22.8l-58.3,101C1608.6,982.4,1602.9,985.3,1597.2,985.3z"/>
</g>
<g>
	<path id="SVGCleanerId_7_1_" fill="#92C7D3" d="M1697.1,985.3c-2.9,0-5.7-0.7-8.3-2.2c-8-4.6-10.7-14.8-6.1-22.8l58.3-101
		c4.6-8,14.8-10.7,22.8-6.1c8,4.6,10.7,14.8,6.1,22.8l-58.3,101C1708.5,982.4,1702.9,985.3,1697.1,985.3z"/>
</g>
<g>
	<path id="SVGCleanerId_8_1_" fill="#92C7D3" d="M1797.1,985.3c-2.9,0-5.7-0.7-8.3-2.2c-8-4.6-10.7-14.8-6.1-22.8l58.3-101
		c4.6-8,14.8-10.7,22.8-6.1c8,4.6,10.7,14.8,6.1,22.8l-58.3,101C1808.5,982.4,1802.8,985.3,1797.1,985.3z"/>
</g>
<circle fill="#E0DCD7" cx="1605.3" cy="351.2" r="253.4"/>
<circle fill="#C1BFBD" cx="1497.8" cy="234" r="39.3"/>
<circle fill="#C1BFBD" cx="1547.3" cy="327.5" r="22.7"/>
<circle fill="#C1BFBD" cx="1450.6" cy="433.2" r="28.6"/>
<circle fill="#C1BFBD" cx="1698" cy="437.9" r="31.4"/>
<circle fill="#C1BFBD" cx="1725.5" cy="276.5" r="34.9"/>
<circle fill="#C1BFBD" cx="1472.4" cy="318.7" r="13.9"/>
<circle fill="#C1BFBD" cx="1583.9" cy="427.4" r="13.9"/>
<circle fill="#C1BFBD" cx="1774.3" cy="338.8" r="13.9"/>
<circle fill="#C1BFBD" cx="1642.9" cy="260.2" r="16.2"/>
<circle fill="#C1BFBD" cx="1636.4" cy="507.9" r="22.7"/>
<circle fill="#C1BFBD" cx="1613.7" cy="169.6" r="28.6"/>
<circle fill="#C1BFBD" cx="1549" cy="515.5" r="11.9"/>
<circle fill="#C1BFBD" cx="1671.1" cy="351.2" r="11.9"/>
<path fill="#92C7D3" d="M1744,593.4c-2,0-78.5,0-78.5,0c1.4-16.7,2.3-16.6,2.3-25.5c0.3-78.5-52.2-147.3-128.8-164.3
	c-43.7-9.6-85.4-2.7-119.9,15.9c-42.1-62.7-111.9-105-191.8-109.9c-10.3-1.4-20.7-2.3-31.4-2.3c-130.3,0-235.9,109-235.9,243.4
	c0,70.1,28.9,133,74.8,177.4c40.6,45.1,97,74.1,163.7,79c0,0,543.5,2.7,545.5,2.7c54.6,0,98.9-49.4,98.9-108.3
	C1842.9,642.8,1798.6,593.4,1744,593.4z"/>
</svg>
