<?xml version="1.0" encoding="utf-8"?>
<!-- Generator: Adobe Illustrator 18.0.0, SVG Export Plug-In . SVG Version: 6.00 Build 0)  -->
<!DOCTYPE svg PUBLIC "-//W3C//DTD SVG 1.1//EN" "http://www.w3.org/Graphics/SVG/1.1/DTD/svg11.dtd">
<svg version="1.1" id="Layer_1" xmlns="http://www.w3.org/2000/svg" xmlns:xlink="http://www.w3.org/1999/xlink" x="0px" y="0px"
	 viewBox="436.1 464 1887.6 1068.6" enable-background="new 436.1 464 1887.6 1068.6" xml:space="preserve">
<path fill="#92C7D3" d="M2112.4,1072.5c-4.4,0-167.7,0-167.7,0c3-31.5,4.9-34.2,4.9-52.9c0.5-167.9-111.5-314.4-275.3-350.5
	c-93.4-20.5-182.6-5.4-256.4,34.5c-90.1-133.9-239.1-224.3-410.1-234.9c-21.9-3-44.3-4.7-67.1-4.7c-278.7,0-504.4,233.1-504.4,520.4
	c0,149.7,61.7,284.3,159.8,379.3c86.8,96.2,207.3,158.6,350,169c0,0,1161.9,5.8,1166.2,5.8c116.9,0,211.5-107.1,211.5-232.9
	C2323.9,1179.4,2229.1,1072.5,2112.4,1072.5z"/>
</svg>
