<?xml version="1.0" encoding="utf-8"?>
<!-- Generator: Adobe Illustrator 18.0.0, SVG Export Plug-In . SVG Version: 6.00 Build 0)  -->
<!DOCTYPE svg PUBLIC "-//W3C//DTD SVG 1.1//EN" "http://www.w3.org/Graphics/SVG/1.1/DTD/svg11.dtd">
<svg version="1.1" id="Layer_1" xmlns="http://www.w3.org/2000/svg" xmlns:xlink="http://www.w3.org/1999/xlink" x="0px" y="0px"
	 viewBox="840 8.4 1080 1063.2" enable-background="new 840 8.4 1080 1063.2" xml:space="preserve">
<path fill="#77B9C8" d="M1799,378.1c-2.5,0-96,0-96,0c1.7-18,2.8-30.7,2.8-41.4c0.3-96-63.8-185.5-157.6-206.1
	c-53.4-11.8-104.5-5.9-146.7,16.9C1350.1,70.9,1264.8,17.8,1167,11.8c-12.6-1.7-25.3-3.4-38.4-3.4C969.2,8.3,840,141.3,840,305.7
	c0,85.7,35.3,162.5,91.5,216.8c49.7,55.1,118.6,90.6,200.3,96.5c0,0,664.7,3.3,667.2,3.3c66.9,0,121-50.1,121-122.1
	S1865.8,378.1,1799,378.1z"/>
<path fill="#92C7D3" d="M1723.1,648.1c-2.2,0-84.8,0-84.8,0c1.5-18,2.5-17.9,2.5-27.5c0.3-84.8-56.4-159.2-139.2-177.5
	c-47.2-10.4-92.3-2.9-129.6,17.2c-45.5-67.7-120.9-113.5-207.2-118.7c-11.1-1.5-22.4-2.5-33.9-2.5c-140.8,0-254.9,117.8-254.9,263
	c0,75.7,31.2,143.7,80.8,191.7c43.9,48.7,104.8,80.1,176.9,85.4c0,0,587.2,2.9,589.4,2.9c59,0,106.9-53.4,106.9-117
	S1782.1,648.1,1723.1,648.1z"/>
<path id="SVGCleanerId_0" fill="#92C7D3" d="M1132.5,1071.6c-3.1,0-6.2-0.8-9-2.4c-8.6-5-11.6-16-6.6-24.6l63-109.1
	c5-8.6,16-11.6,24.6-6.6s11.6,16,6.6,24.6l-63,109.1C1144.8,1068.4,1138.7,1071.6,1132.5,1071.6z"/>
<path id="SVGCleanerId_1" fill="#92C7D3" d="M1240.5,1071.6c-3.1,0-6.2-0.8-9-2.4c-8.6-5-11.6-16-6.6-24.6l63-109.1
	c5-8.6,16-11.6,24.6-6.6s11.6,16,6.6,24.6l-63,109.1C1252.8,1068.4,1246.7,1071.6,1240.5,1071.6z"/>
<path id="SVGCleanerId_2" fill="#92C7D3" d="M916.5,1071.6c-3.1,0-6.2-0.8-9-2.4c-8.6-5-11.6-16-6.6-24.6l63-109.1
	c5-8.6,16-11.6,24.6-6.6s11.6,16,6.6,24.6l-63,109.1C928.8,1068.4,922.7,1071.6,916.5,1071.6z"/>
<path id="SVGCleanerId_3" fill="#92C7D3" d="M1024.5,1071.6c-3.1,0-6.2-0.8-9-2.4c-8.6-5-11.6-16-6.6-24.6l63-109.1
	c5-8.6,16-11.6,24.6-6.6s11.6,16,6.6,24.6l-63,109.1C1036.8,1068.4,1030.7,1071.6,1024.5,1071.6z"/>
<path id="SVGCleanerId_4" fill="#92C7D3" d="M1348.5,1071.6c-3.1,0-6.2-0.8-9-2.4c-8.6-5-11.6-16-6.6-24.6l63-109.1
	c5-8.6,16-11.6,24.6-6.6s11.6,16,6.6,24.6l-63,109.1C1360.8,1068.4,1354.7,1071.6,1348.5,1071.6z"/>
<path id="SVGCleanerId_5" fill="#92C7D3" d="M1456.5,1071.6c-3.1,0-6.2-0.8-9-2.4c-8.6-5-11.6-16-6.6-24.6l63-109.1
	c5-8.6,16-11.6,24.6-6.6s11.6,16,6.6,24.6l-63,109.1C1468.8,1068.4,1462.7,1071.6,1456.5,1071.6z"/>
<path id="SVGCleanerId_6" fill="#92C7D3" d="M1564.5,1071.6c-3.1,0-6.2-0.8-9-2.4c-8.6-5-11.6-16-6.6-24.6l63-109.1
	c5-8.6,16-11.6,24.6-6.6s11.6,16,6.6,24.6l-63,109.1C1576.8,1068.4,1570.7,1071.6,1564.5,1071.6z"/>
<path id="SVGCleanerId_7" fill="#92C7D3" d="M1672.5,1071.6c-3.1,0-6.2-0.8-9-2.4c-8.6-5-11.6-16-6.6-24.6l63-109.1
	c5-8.6,16-11.6,24.6-6.6s11.6,16,6.6,24.6l-63,109.1C1684.8,1068.4,1678.7,1071.6,1672.5,1071.6z"/>
<path id="SVGCleanerId_8" fill="#92C7D3" d="M1780.5,1071.6c-3.1,0-6.2-0.8-9-2.4c-8.6-5-11.6-16-6.6-24.6l63-109.1
	c5-8.6,16-11.6,24.6-6.6s11.6,16,6.6,24.6l-63,109.1C1792.8,1068.4,1786.7,1071.6,1780.5,1071.6z"/>
<g>
	<path id="SVGCleanerId_0_1_" fill="#92C7D3" d="M1132.5,1071.6c-3.1,0-6.2-0.8-9-2.4c-8.6-5-11.6-16-6.6-24.6l63-109.1
		c5-8.6,16-11.6,24.6-6.6s11.6,16,6.6,24.6l-63,109.1C1144.8,1068.4,1138.7,1071.6,1132.5,1071.6z"/>
</g>
<g>
	<path id="SVGCleanerId_1_1_" fill="#92C7D3" d="M1240.5,1071.6c-3.1,0-6.2-0.8-9-2.4c-8.6-5-11.6-16-6.6-24.6l63-109.1
		c5-8.6,16-11.6,24.6-6.6s11.6,16,6.6,24.6l-63,109.1C1252.8,1068.4,1246.7,1071.6,1240.5,1071.6z"/>
</g>
<g>
	<path id="SVGCleanerId_2_1_" fill="#92C7D3" d="M916.5,1071.6c-3.1,0-6.2-0.8-9-2.4c-8.6-5-11.6-16-6.6-24.6l63-109.1
		c5-8.6,16-11.6,24.6-6.6s11.6,16,6.6,24.6l-63,109.1C928.8,1068.4,922.7,1071.6,916.5,1071.6z"/>
</g>
<g>
	<path id="SVGCleanerId_3_1_" fill="#92C7D3" d="M1024.5,1071.6c-3.1,0-6.2-0.8-9-2.4c-8.6-5-11.6-16-6.6-24.6l63-109.1
		c5-8.6,16-11.6,24.6-6.6s11.6,16,6.6,24.6l-63,109.1C1036.8,1068.4,1030.7,1071.6,1024.5,1071.6z"/>
</g>
<g>
	<path id="SVGCleanerId_4_1_" fill="#92C7D3" d="M1348.5,1071.6c-3.1,0-6.2-0.8-9-2.4c-8.6-5-11.6-16-6.6-24.6l63-109.1
		c5-8.6,16-11.6,24.6-6.6s11.6,16,6.6,24.6l-63,109.1C1360.8,1068.4,1354.7,1071.6,1348.5,1071.6z"/>
</g>
<g>
	<path id="SVGCleanerId_5_1_" fill="#92C7D3" d="M1456.5,1071.6c-3.1,0-6.2-0.8-9-2.4c-8.6-5-11.6-16-6.6-24.6l63-109.1
		c5-8.6,16-11.6,24.6-6.6s11.6,16,6.6,24.6l-63,109.1C1468.8,1068.4,1462.7,1071.6,1456.5,1071.6z"/>
</g>
<g>
	<path id="SVGCleanerId_6_1_" fill="#92C7D3" d="M1564.5,1071.6c-3.1,0-6.2-0.8-9-2.4c-8.6-5-11.6-16-6.6-24.6l63-109.1
		c5-8.6,16-11.6,24.6-6.6s11.6,16,6.6,24.6l-63,109.1C1576.8,1068.4,1570.7,1071.6,1564.5,1071.6z"/>
</g>
<g>
	<path id="SVGCleanerId_7_1_" fill="#92C7D3" d="M1672.5,1071.6c-3.1,0-6.2-0.8-9-2.4c-8.6-5-11.6-16-6.6-24.6l63-109.1
		c5-8.6,16-11.6,24.6-6.6s11.6,16,6.6,24.6l-63,109.1C1684.8,1068.4,1678.7,1071.6,1672.5,1071.6z"/>
</g>
<g>
	<path id="SVGCleanerId_8_1_" fill="#92C7D3" d="M1780.5,1071.6c-3.1,0-6.2-0.8-9-2.4c-8.6-5-11.6-16-6.6-24.6l63-109.1
		c5-8.6,16-11.6,24.6-6.6s11.6,16,6.6,24.6l-63,109.1C1792.8,1068.4,1786.7,1071.6,1780.5,1071.6z"/>
</g>
</svg>
