<?xml version="1.0" encoding="utf-8"?>
<!-- Generator: Adobe Illustrator 18.0.0, SVG Export Plug-In . SVG Version: 6.00 Build 0)  -->
<!DOCTYPE svg PUBLIC "-//W3C//DTD SVG 1.1//EN" "http://www.w3.org/Graphics/SVG/1.1/DTD/svg11.dtd">
<svg version="1.1" id="Layer_1" xmlns="http://www.w3.org/2000/svg" xmlns:xlink="http://www.w3.org/1999/xlink" x="0px" y="0px"
	 viewBox="420 3.9 1080 1072.2" enable-background="new 420 3.9 1080 1072.2" xml:space="preserve">
<path fill="#92C7D3" d="M1379,357.7c-2.5,0-96,0-96,0c1.7-18.4,2.8-22.4,2.8-33.2c0.3-96-63.8-181.3-157.6-202
	c-53.4-11.8-104.5-3.8-146.7,19C930.1,64.8,844.8,12.8,747,6.8c-12.6-1.7-25.3-2.9-38.4-2.9C549.2,3.9,420,137.1,420,301.5
	c0,85.7,35.3,162.6,91.5,217c49.7,55.1,118.6,90.7,200.3,96.6c0,0,664.7,3.3,667.2,3.3c66.9,0,121-58.4,121-130.3
	C1500,416,1445.8,357.7,1379,357.7z"/>
<g>
	<path fill="#BEDDE5" d="M1068.2,751.9c-4.6,0-9.2-1.8-12.7-5.3c-7-7-7-18.4,0-25.5l251.6-251.6c7-7,18.4-7,25.5,0
		c7,7,7,18.4,0,25.5l-251.6,251.6C1077.4,750.2,1072.8,751.9,1068.2,751.9z"/>
	<path fill="#BEDDE5" d="M1319.8,751.9c-4.6,0-9.2-1.8-12.7-5.3l-251.6-251.6c-7-7-7-18.4,0-25.5c7-7,18.4-7,25.5,0l251.6,251.6
		c7,7,7,18.4,0,25.5C1329,750.2,1324.4,751.9,1319.8,751.9z"/>
	<path fill="#BEDDE5" d="M1212,708.2V507.6l49.4-49.2c7-7,7.1-18.4,0-25.5c-7-7-18.4-7.1-25.5,0l-23.9,23.9v-28.6c0-9.9-8-18-18-18
		s-18,8.1-18,18v28.6l-23.8-23.8c-7-7-18.4-7-25.5,0c-7,7-7,18.4,0,25.5l49.3,49.2v200.6l-49.3,49.2c-7.1,7-7.1,18.4,0,25.5
		c3.5,3.5,8.1,5.3,12.7,5.3s9.2-1.8,12.7-5.3l23.9-23.8v29.1c0,9.9,8,18,18,18c10,0,18-8.1,18-18V759l23.9,23.9c7.1,7,18.5,7,25.5,0
		c7-7,7-18.4,0-25.5L1212,708.2z"/>
</g>
<circle fill="#E4F1F4" cx="1194.9" cy="607.2" r="67.1"/>
<g>
	<path fill="#BEDDE5" d="M1195,692.3c-46.9,0-85.1-38.2-85.1-85.1S1148,522,1195,522c46.9,0,85.1,38.2,85.1,85.1
		C1280.1,654.1,1241.9,692.3,1195,692.3z M1195,558.1c-27.1,0-49.1,22-49.1,49.1c0,27.1,22,49.1,49.1,49.1c27.1,0,49.1-22,49.1-49.1
		C1244.1,580.1,1222,558.1,1195,558.1z"/>
	<path fill="#BEDDE5" d="M510.2,1021.9c-4.6,0-9.2-1.8-12.7-5.3c-7-7-7-18.4,0-25.5l251.6-251.6c7-7,18.4-7,25.5,0s7,18.4,0,25.5
		l-251.6,251.6C519.4,1020.2,514.8,1021.9,510.2,1021.9z"/>
	<path fill="#BEDDE5" d="M761.8,1021.9c-4.6,0-9.2-1.8-12.7-5.3L497.5,765.1c-7-7-7-18.4,0-25.5c7-7,18.4-7,25.5,0l251.6,251.6
		c7,7,7,18.4,0,25.5C771,1020.2,766.4,1021.9,761.8,1021.9z"/>
	<path fill="#BEDDE5" d="M1374,590.1h-30.5l21.9-23.8c6.7-7.3,6.2-18.7-1.1-25.4c-7.3-6.7-18.7-6.2-25.4,1.1l-44.3,48.2h-202.8
		l-46.3-48.4c-6.9-7.2-18.3-7.5-25.4-0.6c-7.2,6.9-7.5,18.3-0.6,25.5l22.5,23.6H1014c-10,0-18,8.1-18,18c0,9.9,8,18,18,18h28
		l-24.8,24.7c-7.1,7-7.1,18.4-0.1,25.5c3.5,3.5,8.1,5.3,12.8,5.3c4.6,0,9.2-1.7,12.7-5.3l50.5-50.2h201.7l47,49.8
		c3.5,3.7,8.3,5.7,13.1,5.7c4.4,0,8.9-1.6,12.4-4.9c7.2-6.8,7.6-18.2,0.7-25.5l-23.7-25.1h29.7c10,0,18-8.1,18-18
		C1392,598.2,1384,590.1,1374,590.1z"/>
	<path fill="#BEDDE5" d="M703.4,728.4c7-7,7.1-18.4,0-25.5c-7-7-18.4-7.1-25.5,0L654,726.8v-28.7c0-9.9-8.1-18-18-18s-18,8.1-18,18
		v28.6l-23.8-23.8c-7-7.1-18.4-7-25.5,0c-7,7-7,18.4,0,25.5l49.3,49.2v200.6l-49.3,49.2c-7,7-7.1,18.4,0,25.5
		c3.5,3.5,8.1,5.3,12.7,5.3c4.6,0,9.2-1.8,12.7-5.3l23.8-23.8v29.1c0,9.9,8.1,18,18,18s18-8.1,18-18V1029l24,23.9c7,7,18.4,7,25.5,0
		c7-7.1,7-18.4,0-25.5L654,978.2V777.6L703.4,728.4z"/>
	<path fill="#BEDDE5" d="M816,860.1h-30.4l21.9-23.8c6.7-7.3,6.3-18.7-1.1-25.4c-7.3-6.8-18.7-6.3-25.4,1.1l-44.3,48.2H533.9
		l-46.3-48.4c-6.9-7.2-18.3-7.5-25.5-0.6c-7.2,6.9-7.5,18.3-0.6,25.5l22.5,23.6H456c-9.9,0-18,8.1-18,18c0,9.9,8.1,18,18,18h28
		l-24.8,24.7c-7.1,7-7.1,18.4-0.1,25.5c3.5,3.5,8.1,5.3,12.7,5.3c4.6,0,9.2-1.7,12.7-5.3l50.5-50.2h201.7l47,49.8
		c3.5,3.7,8.3,5.7,13.1,5.7c4.4,0,8.9-1.6,12.3-4.9c7.2-6.8,7.6-18.2,0.8-25.5l-23.7-25.1H816c9.9,0,18-8.1,18-18
		C834,868.2,825.9,860.1,816,860.1z"/>
</g>
<circle fill="#E4F1F4" cx="636.9" cy="877.2" r="67.1"/>
<path fill="#BEDDE5" d="M637,962.3c-46.9,0-85.1-38.2-85.1-85.1c0-46.9,38.2-85.1,85.1-85.1c46.9,0,85.1,38.2,85.1,85.1
	C722.1,924.1,683.9,962.3,637,962.3z M637,828.1c-27.1,0-49.1,22-49.1,49.1s22,49.1,49.1,49.1c27.1,0,49.1-22,49.1-49.1
	S664,828.1,637,828.1z"/>
</svg>
