<?xml version="1.0" encoding="utf-8"?>
<!-- Generator: Adobe Illustrator 18.0.0, SVG Export Plug-In . SVG Version: 6.00 Build 0)  -->
<!DOCTYPE svg PUBLIC "-//W3C//DTD SVG 1.1//EN" "http://www.w3.org/Graphics/SVG/1.1/DTD/svg11.dtd">
<svg version="1.1" id="Layer_1" xmlns="http://www.w3.org/2000/svg" xmlns:xlink="http://www.w3.org/1999/xlink" x="0px" y="0px"
	 viewBox="420 5.5 1080 1068.9" enable-background="new 420 5.5 1080 1068.9" xml:space="preserve">
<path fill="#77B9C8" d="M1379,364.5c-2.5,0-96,0-96,0c1.7-18,2.8-25.1,2.8-35.9c0.3-96-63.8-182.7-157.6-203.3
	c-53.4-11.8-104.5-4.5-146.7,18.3C930.1,67,844.8,14.6,747,8.7c-12.6-1.7-25.3-3.1-38.4-3.1C549.2,5.5,420,138.7,420,303.1
	c0,85.7,35.3,162.6,91.5,216.9c49.7,55.1,118.6,90.7,200.3,96.6c0,0,664.7,3.3,667.2,3.3c66.8,0,121-55.7,121-127.7
	S1445.8,364.5,1379,364.5z"/>
<g>
	<path fill="#92C7D3" d="M497.6,1074.5c-3.1,0-6.1-0.8-9-2.4c-8.6-5-11.5-15.9-6.6-24.5l62.9-108.9c5-8.6,16-11.5,24.5-6.6
		c8.6,5,11.5,15.9,6.6,24.5l-62.9,108.9C509.8,1071.2,503.8,1074.5,497.6,1074.5z"/>
	<path fill="#92C7D3" d="M605.3,1074.5c-3.1,0-6.1-0.8-9-2.4c-8.6-5-11.5-15.9-6.6-24.5l62.9-108.9c5-8.6,16-11.5,24.5-6.6
		c8.6,5,11.5,15.9,6.6,24.5l-62.9,108.9C617.6,1071.2,611.5,1074.5,605.3,1074.5z"/>
	<path fill="#92C7D3" d="M713.1,1074.5c-3.1,0-6.1-0.8-9-2.4c-8.6-5-11.5-15.9-6.6-24.5l62.9-108.9c5-8.6,15.9-11.5,24.5-6.6
		c8.6,5,11.5,15.9,6.6,24.5l-62.9,108.9C725.3,1071.2,719.3,1074.5,713.1,1074.5z"/>
	<path fill="#92C7D3" d="M820.8,1074.5c-3.1,0-6.1-0.8-9-2.4c-8.6-5-11.5-15.9-6.6-24.5l62.9-108.9c5-8.6,16-11.5,24.5-6.6
		c8.6,5,11.5,15.9,6.6,24.5l-62.9,108.9C833.1,1071.2,827,1074.5,820.8,1074.5z"/>
	<path fill="#92C7D3" d="M1251.8,1074.5c-3.1,0-6.1-0.8-9-2.4c-8.6-5-11.5-15.9-6.6-24.5l62.9-108.9c5-8.6,16-11.5,24.5-6.6
		c8.6,5,11.5,15.9,6.6,24.5l-62.9,108.9C1264,1071.2,1258,1074.5,1251.8,1074.5z"/>
	<path fill="#92C7D3" d="M1144.1,1074.5c-3.1,0-6.1-0.8-9-2.4c-8.6-5-11.5-15.9-6.6-24.5l62.9-108.9c5-8.6,15.9-11.5,24.5-6.6
		c8.6,5,11.5,15.9,6.6,24.5l-62.9,108.9C1156.3,1071.2,1150.3,1074.5,1144.1,1074.5z"/>
	<path fill="#92C7D3" d="M1359.5,1074.5c-3.1,0-6.1-0.8-9-2.4c-8.6-5-11.5-15.9-6.6-24.5l62.9-108.9c5-8.6,15.9-11.5,24.5-6.6
		c8.6,5,11.5,15.9,6.6,24.5l-62.9,108.9C1371.8,1071.2,1365.8,1074.5,1359.5,1074.5z"/>
</g>
<g>
	<polygon fill="#FDC567" points="618.1,828.8 675.4,671.2 574.7,613 804.9,358 743.5,581.5 872.6,656 	"/>
	<polygon fill="#FDC567" points="1005,1015 1062.3,857.4 961.5,799.2 1191.8,544.2 1130.4,767.7 1259.5,842.2 	"/>
</g>
</svg>
